<?xml version="1.0" standalone="no"?>
<!DOCTYPE svg PUBLIC "-//W3C//DTD SVG 20010904//EN"
 "http://www.w3.org/TR/2001/REC-SVG-20010904/DTD/svg10.dtd">
<svg version="1.0" xmlns="http://www.w3.org/2000/svg"
 width="260.000000pt" height="260.000000pt" viewBox="0 0 260.000000 260.000000"
 preserveAspectRatio="xMidYMid meet">
<metadata>
Created by potrace 1.14, written by Peter Selinger 2001-2017
</metadata>
<g transform="translate(0.000000,260.000000) scale(0.100000,-0.100000)"
fill="#000000" stroke="none">
<path d="M1514 2483 c-25 -24 -64 -26 -57 -4 3 9 -4 5 -17 -9 l-21 -25 6 25 7
25 -17 -23 c-9 -12 -21 -19 -27 -16 -7 4 -8 2 -4 -5 4 -6 12 -9 17 -6 5 4 9 1
9 -4 0 -6 -7 -11 -16 -11 -8 0 -12 -4 -9 -10 3 -5 1 -10 -6 -10 -8 0 -7 -5 2
-17 9 -11 10 -14 2 -9 -9 5 -11 2 -7 -9 7 -16 -13 -48 -25 -41 -4 3 -13 1 -21
-4 -12 -7 -12 -11 1 -26 13 -16 12 -16 -8 -4 -18 12 -24 12 -37 0 -19 -15 -13
-27 7 -14 7 5 5 2 -5 -8 -23 -20 -23 -28 0 -29 13 0 12 -2 -5 -9 -28 -11 -30
-20 -5 -15 23 4 25 -37 2 -47 -12 -5 -12 -7 3 -7 9 -1 17 -6 17 -12 0 -5 -4
-8 -9 -4 -5 3 -12 1 -15 -4 -4 -5 5 -8 18 -7 20 3 23 -1 21 -24 -3 -33 19 -35
42 -4 10 13 14 14 12 4 -2 -8 5 -29 14 -47 12 -23 14 -34 5 -39 -6 -4 -8 -3
-4 4 3 6 1 14 -6 18 -7 4 -10 4 -6 -1 4 -4 3 -14 -3 -21 -7 -8 -6 -14 2 -20 8
-5 9 -3 4 6 -6 9 -4 11 4 6 9 -6 8 -13 -5 -27 -17 -19 -17 -20 2 -13 18 7 18
7 -1 -16 -11 -13 -15 -20 -8 -17 6 4 15 3 18 -3 4 -6 3 -10 -2 -9 -4 1 -15 1
-23 0 -12 -1 -12 -3 -2 -10 11 -7 10 -9 -3 -14 -9 -4 -13 -3 -10 3 3 6 1 10
-5 10 -6 0 -8 5 -4 13 5 8 2 8 -9 -2 -14 -11 -17 -11 -17 0 0 9 -3 10 -8 4 -7
-11 -92 -15 -92 -5 0 3 -9 6 -20 7 -11 1 -20 -2 -20 -6 0 -8 8 -10 54 -13 14
-1 23 -5 20 -9 -5 -9 -38 -4 -56 7 -8 5 -9 1 -5 -12 7 -18 6 -18 -7 -1 -13 17
-15 17 -34 -7 -10 -14 -22 -22 -26 -19 -3 3 -6 1 -6 -5 0 -7 5 -12 11 -12 6 0
4 -7 -5 -15 -15 -16 -12 -45 5 -45 5 0 9 -4 9 -10 0 -5 -6 -7 -14 -4 -18 7
-30 -12 -15 -22 8 -5 9 -3 4 6 -5 8 -4 11 2 7 15 -9 4 -57 -12 -51 -7 3 -16 0
-21 -7 -4 -8 -3 -10 4 -5 19 11 35 -3 22 -19 -12 -15 5 -16 26 -2 7 4 15 0 18
-9 3 -8 2 -12 -4 -9 -6 3 -10 1 -10 -5 0 -6 10 -8 26 -4 l27 7 -22 -22 c-12
-12 -19 -26 -16 -31 4 -6 0 -10 -7 -11 -7 0 -3 -5 10 -11 l23 -12 -22 -11
c-19 -10 -19 -13 -5 -18 10 -4 15 -3 11 3 -3 6 -1 10 4 10 16 0 13 -20 -4 -26
-12 -5 -12 -9 3 -23 10 -9 12 -12 4 -7 -15 11 -35 -11 -25 -27 3 -5 9 -3 13 3
5 8 7 3 7 -13 -1 -14 -4 -24 -7 -22 -3 2 -12 0 -20 -6 -13 -7 -12 -9 1 -9 9 0
20 -7 23 -16 6 -14 4 -15 -9 -4 -13 11 -16 11 -13 -1 2 -8 -3 -13 -10 -11 -8
1 -11 -2 -7 -7 3 -6 11 -8 19 -5 7 3 13 -2 13 -10 0 -8 -4 -13 -9 -10 -5 3 -8
2 -7 -3 1 -4 0 -10 -1 -13 -8 -22 -5 -47 7 -43 7 3 13 0 13 -6 0 -6 -6 -11
-14 -11 -21 0 -31 -21 -16 -30 9 -6 7 -10 -9 -15 -12 -3 -19 -10 -16 -15 3 -5
1 -11 -4 -14 -5 -4 -13 -1 -17 5 -5 8 -3 9 6 4 9 -6 11 -4 5 4 -5 9 -10 10
-18 2 -7 -7 -6 -15 4 -27 13 -16 12 -16 -8 -6 -29 16 -41 15 -20 0 14 -11 14
-16 3 -31 -12 -15 -14 -16 -20 -2 -3 8 -13 15 -23 14 -15 0 -15 -2 -3 -7 19
-9 20 -34 1 -40 -9 -3 -11 0 -6 8 5 9 4 11 -4 6 -6 -4 -8 -12 -5 -18 5 -7 1
-9 -9 -5 -9 3 -19 2 -22 -4 -4 -5 -3 -9 2 -8 19 3 30 -2 30 -16 0 -11 -4 -12
-13 -4 -8 6 -14 6 -18 0 -3 -5 0 -12 6 -15 7 -4 3 -4 -9 -2 -13 2 -26 -1 -30
-6 -3 -6 -1 -8 5 -4 6 3 13 2 17 -4 3 -5 -1 -11 -9 -11 -30 -3 -34 -4 -43 -13
-4 -5 -3 -6 3 -3 7 4 14 1 17 -7 4 -9 0 -12 -13 -9 -10 3 -21 -1 -25 -8 -5 -7
-4 -10 3 -5 6 3 14 1 18 -5 4 -8 3 -9 -4 -5 -7 4 -12 1 -12 -9 0 -15 -1 -15
-16 -1 -8 9 -18 16 -21 16 -4 0 -3 -3 0 -7 9 -9 -13 -34 -24 -27 -5 3 -9 0 -9
-5 0 -16 11 -13 32 6 17 15 18 15 13 0 -4 -9 -15 -19 -26 -22 -10 -4 -19 -11
-19 -16 0 -6 5 -7 12 -3 7 4 8 3 4 -4 -5 -9 -13 -9 -26 -2 -16 9 -18 8 -13 -6
4 -10 2 -15 -4 -11 -10 7 -11 -22 0 -39 3 -6 0 -11 -8 -11 -7 0 -12 8 -10 18
2 10 -2 22 -8 25 -7 4 -9 4 -5 -1 11 -11 -11 -47 -24 -39 -7 4 -8 3 -4 -5 4
-6 11 -9 16 -6 5 3 12 1 15 -5 4 -6 3 -10 -2 -9 -26 5 -45 -2 -40 -15 8 -19
-3 -28 -19 -15 -8 7 -14 6 -20 -2 -4 -7 -3 -9 3 -6 6 4 13 0 17 -8 3 -9 -3
-19 -15 -25 -11 -6 -17 -15 -14 -20 3 -6 -1 -7 -9 -4 -9 3 -13 11 -9 17 3 6 1
7 -6 3 -9 -6 -9 -11 1 -23 11 -14 10 -15 -12 -8 -22 7 -23 6 -11 -9 12 -15 12
-16 -5 -9 -17 6 -18 5 -4 -12 14 -17 14 -18 -7 -7 -16 9 -24 9 -29 0 -4 -6 -3
-8 3 -5 6 4 14 0 17 -9 3 -8 2 -12 -3 -9 -6 3 -14 -2 -19 -12 -8 -13 -13 -15
-24 -5 -12 9 -14 0 -15 -55 -1 -37 2 -62 5 -57 10 13 32 16 32 3 0 -5 5 -7 11
-3 8 5 8 1 0 -13 -10 -20 -6 -33 11 -33 4 0 8 5 8 11 0 5 -5 7 -12 3 -7 -5 -8
-3 -3 5 5 10 10 10 19 1 8 -8 6 -15 -8 -26 -19 -14 -19 -14 3 -14 17 0 22 -4
17 -16 -5 -12 -1 -14 17 -9 21 7 21 6 3 -7 -15 -12 -16 -17 -6 -23 9 -6 11 -4
5 5 -5 9 -4 11 4 6 9 -6 9 -11 -1 -24 -11 -13 -11 -15 2 -10 9 3 24 0 33 -7
16 -11 16 -13 2 -19 -9 -3 -13 -2 -10 3 3 5 0 13 -6 16 -7 5 -9 1 -7 -11 2
-11 10 -18 16 -16 8 1 12 -8 10 -25 -2 -20 1 -27 12 -26 8 2 26 -14 40 -35 29
-43 39 -66 17 -37 -15 19 -16 19 -13 -7 1 -15 8 -33 14 -41 7 -8 8 -18 4 -22
-4 -5 -1 -5 6 -1 7 4 10 12 7 17 -4 5 -2 9 4 9 5 0 13 -9 16 -21 5 -16 10 -18
20 -9 12 10 13 7 10 -12 -4 -21 -3 -22 9 -5 12 15 14 15 19 2 4 -8 13 -12 22
-9 8 4 23 0 32 -7 10 -8 14 -9 10 -2 -13 21 33 27 49 6 9 -10 12 -12 8 -4 -5
10 -3 13 9 8 9 -3 18 -1 21 6 2 7 5 3 5 -8 1 -16 3 -17 10 -6 10 16 41 24 41
11 0 -4 14 -10 30 -12 25 -4 30 -2 25 11 -5 12 -2 11 13 -2 31 -28 65 -30 85
-4 15 20 17 20 11 2 -4 -11 -10 -25 -13 -30 -3 -6 2 -2 12 8 9 11 17 15 17 11
0 -5 7 0 15 10 8 11 15 14 15 8 0 -18 -4 -27 -12 -25 -3 1 -11 -3 -17 -10 -8
-10 -4 -13 14 -13 13 0 21 4 18 10 -4 5 1 7 11 3 9 -4 15 -3 11 2 -3 5 3 8 12
6 10 -2 22 -4 26 -4 5 -1 5 -6 1 -13 -4 -6 -3 -8 4 -4 5 3 12 3 15 -1 2 -5 2
-2 0 5 -1 8 3 12 9 9 7 -2 12 -10 10 -16 -1 -7 2 -10 8 -6 6 3 8 10 6 14 -3 4
2 8 10 8 9 0 13 -6 9 -16 -4 -12 -2 -12 9 2 9 12 15 14 18 6 2 -6 24 -12 50
-13 25 -1 44 2 42 6 -7 11 4 10 28 -3 18 -10 20 -9 15 5 -4 10 -3 15 3 11 6
-3 10 -13 10 -21 0 -8 5 -12 10 -9 6 4 8 11 5 16 -3 5 1 6 9 3 9 -3 14 -9 12
-13 -6 -9 40 -8 49 1 3 3 -1 5 -11 5 -9 -1 -19 5 -21 13 -4 12 -2 12 5 2 5 -7
15 -12 23 -10 8 2 13 -2 12 -9 -1 -6 5 -14 13 -17 12 -4 15 -2 10 9 -3 8 -1
15 4 15 5 0 12 -10 16 -22 6 -19 7 -19 16 -4 5 9 15 13 21 10 8 -5 8 -3 0 7
-17 17 -16 26 1 32 10 4 13 1 9 -9 -3 -7 1 -14 8 -14 7 0 9 3 6 6 -3 4 -2 16
4 27 9 15 8 18 -2 12 -8 -6 -10 -4 -5 4 5 7 14 10 21 7 20 -7 36 16 23 34 -8
12 -8 11 -3 -5 5 -15 3 -17 -6 -8 -18 18 -1 37 19 21 13 -11 14 -11 7 1 -6 11
-4 13 10 7 18 -6 18 -6 2 11 -15 18 -15 19 4 20 10 1 17 -2 14 -7 -3 -5 -1
-12 5 -15 6 -4 10 -3 9 2 -4 21 2 34 13 27 7 -4 8 -3 4 5 -4 6 -12 9 -17 6 -5
-4 -9 1 -9 9 0 9 3 15 8 15 20 -3 25 2 12 12 -12 8 -9 10 12 6 24 -4 26 -2 17
15 -5 10 -6 18 -2 17 21 -4 32 2 27 15 -3 8 0 17 7 22 7 4 10 3 5 -4 -3 -6 -2
-14 4 -17 6 -4 9 -1 8 7 -2 7 4 12 12 10 12 -3 12 -1 3 9 -13 13 -7 39 9 39 6
0 5 -8 -3 -17 -11 -15 -11 -16 1 -6 17 16 23 46 7 37 -7 -4 -7 -1 1 7 11 12
14 12 23 -1 9 -12 10 -10 6 8 -4 17 1 26 25 38 28 15 29 16 13 34 -10 11 -24
16 -33 12 -15 -5 -15 -4 -2 14 8 10 10 16 6 12 -13 -11 -39 29 -30 45 5 8 2 7
-9 -2 -15 -12 -17 -11 -14 10 4 25 -11 59 -26 59 -4 0 -6 -4 -2 -9 3 -5 1 -12
-4 -15 -4 -3 -8 4 -7 17 1 14 -4 21 -13 19 -12 -3 -12 0 -2 12 11 13 10 18 -4
32 -13 14 -14 19 -3 25 10 7 10 9 0 9 -7 0 -15 -7 -18 -15 -4 -8 -10 -15 -15
-15 -5 0 -2 12 8 27 17 27 17 27 0 14 -15 -12 -17 -12 -11 4 5 12 4 16 -4 11
-6 -3 -13 -2 -17 3 -3 6 3 8 15 6 11 -2 20 0 20 6 0 8 -23 14 -45 9 -5 -1 -1
9 10 22 11 13 13 17 5 11 -19 -17 -35 -16 -21 0 8 11 7 18 -7 31 -10 9 -22 13
-27 9 -4 -5 -5 -2 -1 5 4 7 12 10 17 7 5 -4 9 -1 9 6 0 6 -8 9 -19 6 -15 -3
-18 -1 -14 11 4 10 2 13 -5 8 -6 -3 -14 -1 -18 5 -4 8 -3 9 4 5 8 -5 11 0 9
15 -4 23 -35 52 -47 44 -5 -3 -7 13 -6 35 l2 40 -25 -17 -26 -16 19 22 c11 11
16 24 13 28 -4 3 -7 1 -7 -5 0 -7 -5 -12 -10 -12 -6 0 -8 11 -6 25 3 15 1 23
-5 20 -5 -4 -7 -10 -4 -15 3 -5 1 -11 -4 -15 -6 -3 -8 3 -6 15 2 11 0 22 -5
25 -4 3 -7 13 -5 23 1 9 -6 22 -16 27 -9 6 -31 27 -48 49 -23 28 -28 43 -22
55 7 11 4 22 -7 36 -16 19 -16 19 1 6 16 -13 18 -12 13 12 -3 16 1 31 12 39
11 9 14 10 8 1 -5 -9 -2 -11 8 -7 19 7 22 25 4 21 -8 -1 -11 9 -9 32 1 18 -2
37 -9 41 -8 5 -7 9 5 13 11 5 14 3 9 -6 -4 -6 -3 -8 1 -4 11 10 15 37 6 37 -4
0 -14 -6 -21 -12 -13 -11 -13 -11 -2 2 6 7 12 22 12 32 0 10 4 18 10 18 5 0 7
-8 4 -17 -5 -15 -4 -16 5 -3 8 11 7 18 -4 26 -16 12 -21 29 -6 19 5 -3 13 0
17 6 4 7 3 9 -4 5 -15 -9 -23 7 -12 24 5 9 4 20 -3 29 -10 12 -9 13 11 2 23
-12 23 -12 11 11 -11 21 -11 22 4 9 10 -7 17 -10 17 -6 0 4 8 1 18 -6 16 -13
16 -13 -1 7 -16 20 -16 21 1 19 9 0 23 -4 29 -8 6 -4 15 -2 19 5 4 7 3 10 -1
5 -5 -4 -17 1 -28 10 -15 13 -18 14 -12 3 4 -8 4 -12 0 -7 -5 4 -10 14 -11 22
-2 12 2 13 18 4 11 -6 22 -8 26 -5 3 3 0 6 -8 6 -9 0 -9 4 -3 13 9 11 10 21 3
52 -1 6 -2 19 -1 30 1 16 3 17 11 5 6 -10 9 -4 7 22 -1 20 -5 34 -9 32 -4 -2
-9 5 -13 16 -8 26 -25 26 -20 0 2 -12 0 -18 -6 -15 -5 4 -7 11 -3 16 3 6 -5 8
-20 5 -15 -3 -24 -1 -21 5 4 5 1 9 -5 9 -6 0 -8 5 -4 13 6 9 5 9 -8 0 -8 -7
-19 -9 -23 -5 -5 4 -5 2 -2 -4 7 -11 -28 -12 -39 -1 -12 12 -26 8 -18 -5 6
-10 4 -10 -7 -2 -8 6 -22 10 -32 9 -14 -3 -17 1 -12 18 5 16 4 18 -4 8 -5 -8
-20 -16 -33 -17 -13 -2 -17 0 -10 2 6 3 12 13 12 22 0 12 -3 13 -12 4 -7 -7
-16 -12 -21 -12 -5 0 1 8 14 18 17 15 19 21 9 27 -9 6 -11 4 -5 -6 8 -12 6
-12 -8 0 -18 15 -23 26 -7 16 6 -3 10 1 10 10 0 10 5 14 13 10 6 -4 2 2 -11
14 -22 19 -22 20 -2 26 11 4 17 11 14 17 -4 6 2 6 15 -1 11 -7 21 -14 21 -17
0 -3 -5 -2 -12 2 -7 4 -8 3 -4 -5 6 -9 14 -8 33 4 19 13 28 14 37 5 8 -9 8
-11 -3 -8 -7 2 -16 -4 -18 -12 -4 -13 -3 -13 6 0 10 13 11 13 11 0 0 -12 2
-13 9 -1 5 8 17 11 32 6 13 -3 20 -3 14 2 -5 4 -11 15 -13 23 -3 12 -1 13 9 3
15 -15 33 -17 24 -3 -3 6 1 7 9 4 9 -3 13 -11 9 -17 -3 -6 -1 -7 6 -3 9 6 9
11 -1 24 -12 14 -10 14 10 3 12 -6 21 -8 20 -4 -1 4 2 18 6 31 6 18 13 21 29
16 22 -6 22 -6 2 10 -11 9 -14 15 -6 14 7 -2 15 3 17 10 1 7 0 8 -2 3 -3 -6
-12 -7 -20 -4 -12 4 -12 8 3 20 10 8 12 12 6 8 -7 -3 -13 -1 -13 5 0 6 -4 9
-9 5 -5 -3 -12 -1 -16 5 -4 6 -11 7 -17 4 -6 -4 -8 -2 -4 4 3 6 2 13 -3 16
-11 7 -2 46 11 46 5 0 7 -4 4 -9 -3 -5 1 -11 9 -15 8 -3 15 -1 15 4 0 5 7 7
15 4 8 -4 15 -1 15 7 0 7 2 10 5 7 10 -9 -6 -37 -18 -32 -7 2 -19 0 -27 -6
-12 -7 -12 -12 -2 -22 9 -9 12 -9 12 5 0 9 5 17 11 17 6 0 9 -6 6 -13 -3 -8 1
-14 8 -14 7 0 11 6 9 12 -7 17 22 39 31 24 6 -8 9 -8 15 1 5 8 9 7 13 -5 4 -9
3 -13 -3 -10 -6 3 -10 1 -10 -4 0 -15 13 -14 29 2 11 10 13 10 7 0 -4 -7 -2
-13 3 -13 6 0 11 6 11 14 0 8 5 18 12 22 6 4 8 3 4 -4 -3 -6 -1 -14 5 -18 8
-4 9 -3 5 4 -4 7 -2 12 4 12 7 0 8 6 1 19 -9 16 -8 18 10 14 20 -6 20 -5 -1
30 -12 20 -19 41 -15 47 4 6 1 18 -7 27 -10 13 -10 15 0 9 10 -6 12 -1 9 21
-3 20 -9 28 -25 28 -11 0 -24 3 -28 7 -3 4 2 6 13 4 11 -3 26 0 34 6 11 8 11
9 -3 4 -10 -3 -20 -1 -23 4 -4 6 -13 5 -25 -2 -14 -9 -22 -9 -33 0 -11 10 -17
9 -27 -3 -7 -8 -17 -12 -23 -8 -6 3 -7 1 -3 -6 4 -6 12 -9 17 -6 12 8 11 -17
-2 -35 -9 -13 -10 -13 -6 2 3 9 -1 19 -9 22 -11 4 -13 -1 -10 -19 3 -18 1 -23
-7 -18 -7 4 -21 8 -31 8 -11 0 -21 5 -23 12 -2 6 4 10 14 9 10 -2 12 -1 5 1
-11 4 -11 7 0 20 12 15 10 15 -10 4 -13 -7 -26 -10 -30 -7 -3 3 -1 6 5 6 6 0
11 11 11 25 0 14 -6 25 -13 25 -8 0 -11 -9 -9 -22 4 -21 4 -21 -5 -3 -4 11 -5
25 0 30 5 7 0 11 -12 12 -11 1 -17 -2 -15 -6 3 -4 -2 -8 -10 -8 -8 0 -13 6
-10 14 7 17 4 16 -20 -4z m216 -59 c0 -8 -5 -12 -10 -9 -6 4 -8 11 -5 16 9 14
15 11 15 -7z m-122 -66 c0 -7 3 -22 5 -33 4 -15 0 -21 -12 -21 -10 0 -17 8
-18 21 -1 11 1 14 4 8 3 -7 9 -13 14 -13 6 0 6 8 -1 19 -12 24 -13 31 -2 31 5
0 9 -6 10 -12z m44 -2 c-4 -6 -7 -14 -7 -18 0 -3 -4 -10 -9 -15 -5 -4 -6 -3
-2 4 3 6 2 14 -4 18 -14 8 -5 22 14 22 8 0 12 -5 8 -11z m-257 -18 c-11 -6
-23 -16 -27 -22 -5 -8 -8 -7 -8 1 0 12 28 32 45 32 6 0 1 -5 -10 -11z m185
-58 c0 -5 -2 -10 -4 -10 -3 0 -8 5 -11 10 -3 6 -1 10 4 10 6 0 11 -4 11 -10z
m47 -7 c0 -9 -4 -10 -12 -3 -7 5 -15 7 -18 3 -4 -3 -7 -1 -7 5 0 6 8 10 18 9
10 0 19 -7 19 -14z m-35 -8 c9 2 19 -3 21 -9 7 -17 -10 -43 -20 -33 -4 5 -1
12 7 17 12 8 11 10 -7 10 -12 0 -23 -5 -25 -11 -2 -6 -9 1 -16 15 -11 24 -10
26 6 18 9 -5 25 -8 34 -7z m-255 -144 c0 -11 -5 -18 -9 -15 -4 3 -5 11 -1 19
7 21 12 19 10 -4z m-7 -203 c0 -4 -9 -7 -20 -5 -29 5 -33 13 -5 13 14 0 25 -4
25 -8z m-190 -72 c0 -2 -7 -7 -16 -10 -8 -3 -12 -2 -9 4 6 10 25 14 25 6z
m575 -16 c-3 -5 -12 -10 -18 -10 -7 0 -6 4 3 10 19 12 23 12 15 0z m-20 -90
c-3 -5 -1 -10 5 -10 6 0 8 -5 4 -11 -4 -8 -9 -7 -15 2 -7 12 -3 29 7 29 3 0 2
-4 -1 -10z m-558 -16 c-3 -3 -12 -4 -19 -1 -8 3 -5 6 6 6 11 1 17 -2 13 -5z
m49 -76 c4 -7 4 -10 -1 -6 -4 4 -15 2 -24 -5 -14 -11 -14 -10 -2 6 16 20 18
21 27 5z m-1 -28 c-3 -5 -14 -10 -23 -10 -15 0 -15 2 -2 10 20 13 33 13 25 0z
m-35 -260 c0 -5 -5 -10 -11 -10 -5 0 -7 5 -4 10 3 6 8 10 11 10 2 0 4 -4 4
-10z m497 -212 c-3 -8 -6 -5 -6 6 -1 11 2 17 5 13 3 -3 4 -12 1 -19z m128
-177 c3 -5 0 -13 -6 -17 -7 -4 -9 -3 -5 4 3 5 0 13 -6 15 -9 4 -10 6 -1 6 6 1
14 -3 18 -8z m60 -111 c3 -5 -1 -10 -10 -10 -9 0 -13 5 -10 10 3 6 8 10 10 10
2 0 7 -4 10 -10z m-1265 -271 c0 -5 -8 -9 -17 -8 -11 0 -13 3 -5 6 6 2 9 10 6
15 -4 7 -2 8 4 4 7 -4 12 -11 12 -17z m1479 -73 c9 -10 8 -15 -4 -20 -10 -4
-15 1 -15 14 0 24 4 25 19 6z m-1343 -168 c4 -7 3 -8 -4 -4 -7 4 -12 2 -12 -5
0 -7 -3 -10 -6 -6 -6 5 3 27 11 27 2 0 7 -5 11 -12z m64 -122 c0 -11 -19 -15
-25 -6 -3 5 1 10 9 10 9 0 16 -2 16 -4z m100 -50 c0 -3 -4 -8 -10 -11 -5 -3
-10 -1 -10 4 0 6 5 11 10 11 6 0 10 -2 10 -4z m40 -2 c0 -8 -19 -13 -24 -6 -3
5 1 9 9 9 8 0 15 -2 15 -3z m254 -15 c4 6 12 9 17 5 5 -3 7 -9 4 -14 -8 -13
-38 -5 -43 11 -3 12 -2 12 6 0 7 -9 12 -10 16 -2z m296 -35 c0 -8 -19 -13 -24
-6 -3 5 1 9 9 9 8 0 15 -2 15 -3z m265 -13 c3 -5 2 -12 -3 -15 -5 -3 -9 1 -9
9 0 17 3 19 12 6z"/>
<path d="M1830 2320 c0 -5 5 -10 11 -10 5 0 8 -4 5 -8 -2 -4 0 -14 5 -22 7
-11 8 -8 5 10 -3 14 -5 28 -5 33 -1 11 -21 8 -21 -3z"/>
<path d="M1873 2255 c0 -8 4 -12 9 -9 5 3 6 10 3 15 -9 13 -12 11 -12 -6z"/>
<path d="M1716 2212 c-3 -6 -1 -14 5 -17 15 -10 25 3 12 16 -7 7 -13 7 -17 1z"/>
<path d="M1356 2087 c3 -10 9 -15 12 -12 3 3 0 11 -7 18 -10 9 -11 8 -5 -6z"/>
<path d="M1430 2026 c0 -2 7 -7 16 -10 8 -3 12 -2 9 4 -6 10 -25 14 -25 6z"/>
<path d="M1110 1943 c0 -6 5 -15 11 -19 8 -4 7 -9 -2 -15 -8 -5 -9 -9 -3 -9
18 0 37 27 24 35 -5 3 -10 3 -10 -2 0 -4 -5 -1 -10 7 -6 9 -10 10 -10 3z"/>
<path d="M1515 1931 c-6 -11 13 -26 22 -17 4 3 1 6 -6 6 -7 0 -9 5 -6 10 3 6
4 10 1 10 -3 0 -7 -4 -11 -9z"/>
<path d="M1555 1900 c3 -5 8 -10 11 -10 2 0 4 5 4 10 0 6 -5 10 -11 10 -5 0
-7 -4 -4 -10z"/>
<path d="M1650 1889 c0 -5 5 -7 10 -4 6 3 10 8 10 11 0 2 -4 4 -10 4 -5 0 -10
-5 -10 -11z"/>
<path d="M1715 1880 c3 -5 8 -10 11 -10 2 0 4 5 4 10 0 6 -5 10 -11 10 -5 0
-7 -4 -4 -10z"/>
<path d="M1717 1769 c7 -7 15 -10 18 -7 3 3 -2 9 -12 12 -14 6 -15 5 -6 -5z"/>
<path d="M1593 1346 c0 -9 4 -16 9 -16 5 0 6 -6 1 -12 -10 -17 -14 -42 -5 -33
4 4 7 10 7 13 0 4 3 12 7 18 4 6 2 19 -6 29 -11 15 -13 16 -13 1z"/>
<path d="M1589 1252 c5 -10 16 -24 24 -30 12 -10 14 -8 13 10 -1 13 -7 22 -14
21 -7 -2 -12 2 -12 7 0 6 -5 10 -10 10 -7 0 -7 -6 -1 -18z"/>
<path d="M1030 1199 c0 -5 5 -7 10 -4 6 3 10 8 10 11 0 2 -4 4 -10 4 -5 0 -10
-5 -10 -11z"/>
<path d="M1635 1200 c-3 -5 -1 -10 4 -10 6 0 11 5 11 10 0 6 -2 10 -4 10 -3 0
-8 -4 -11 -10z"/>
<path d="M1746 1021 c-4 -5 -2 -12 3 -15 5 -4 12 -2 15 3 4 5 2 12 -3 15 -5 4
-12 2 -15 -3z"/>
<path d="M640 795 c0 -8 29 -12 39 -5 9 5 4 8 -13 8 -14 0 -26 -2 -26 -3z"/>
<path d="M1935 690 c3 -5 8 -10 11 -10 2 0 4 5 4 10 0 6 -5 10 -11 10 -5 0 -7
-4 -4 -10z"/>
<path d="M550 679 c0 -5 5 -7 10 -4 6 3 10 8 10 11 0 2 -4 4 -10 4 -5 0 -10
-5 -10 -11z"/>
<path d="M1975 660 c3 -5 8 -10 11 -10 2 0 4 5 4 10 0 6 -5 10 -11 10 -5 0 -7
-4 -4 -10z"/>
<path d="M2007 596 c-4 -10 -1 -13 8 -9 8 3 12 9 9 14 -7 12 -11 11 -17 -5z"/>
<path d="M2026 458 c3 -4 11 -5 19 -1 21 7 19 12 -4 10 -11 0 -18 -5 -15 -9z"/>
<path d="M713 281 c0 -11 5 -18 9 -15 4 3 5 11 1 19 -7 21 -12 19 -10 -4z"/>
</g>
</svg>
